<svg width="35" height="35" viewBox="0 0 35 35" fill="none" xmlns="http://www.w3.org/2000/svg">
<path fill-rule="evenodd" clip-rule="evenodd" d="M7.29166 17.5001C7.29166 23.1956 11.892 27.7587 17.5 27.7587L17.5 35C7.80506 35 -4.75644e-07 27.1351 -1.05835e-06 17.5001C-1.64105e-06 7.86502 7.80506 0.000163785 17.5 0.000163479L17.5 7.24151C11.892 7.24151 7.29166 11.8046 7.29166 17.5001Z" fill="#8759F2"/>
<path fill-rule="evenodd" clip-rule="evenodd" d="M24.7917 17.5001C24.7917 23.1956 29.392 27.7587 35 27.7587L35 35C25.3051 35 17.5 27.1351 17.5 17.5001C17.5 7.86502 25.3051 0.000163701 35 0.00016329L35 7.24151C29.392 7.24151 24.7917 11.8046 24.7917 17.5001Z" fill="#FFC300"/>
<rect x="17.5" width="17.5" height="7.20585" fill="#00D4E6"/>
<rect x="17.5" y="27.7925" width="17.5" height="7.20585" fill="#FF3E80"/>
</svg>
